PathFileType	4	(X/Y/Z)	OpenSim_Sub03_CSBaseline_Magnet.trc
DataRate	CameraRate	NumFrames	NumMarkers	Units	OrigDataRate	OrigDataStartFrame	OrigNumFrames
100	100	20	8	m	100	4645	9288
Frame#	Time	torso_imu_offset_imu	pelvis_imu_offset_imu	tibia_r_imu_offset_imu	femur_r_imu_offset_imu	tibia_l_imu_offset_imu	femur_l_imu_offset_imu	toes_r_imu_offset_imu	toes_l_imu_offset_imu
				X1	Y1	Z1	X2	Y2	Z2	X3	Y3	Z3	X4	Y4	Z4	X5	Y5	Z5	X6	Y6	Z6	X7	Y7	Z7	X8		Y8	Z8	

4645	46.44000000	-0.89868696	-0.12725215	0.18883949	-0.71136134	0.14729340	-0.58442848	-0.71222835	-0.29853408	-0.02045515	-0.66858834	-0.43460340	0.05968630	-0.55509376	0.55214997	0.21095656	-0.63308289	0.45980736	0.28319860	-0.64404270	0.03059255	-0.48459495	-0.75696703	-0.06050499	-0.28745424
4646	46.45000000	-0.89951469	-0.12267287	0.19271115	-0.70720603	0.14126534	-0.58612107	-0.71404585	-0.28522759	-0.02601720	-0.67404881	-0.43514171	0.06727651	-0.54571215	0.55983844	0.20313689	-0.62983343	0.45655816	0.28375273	-0.64798498	0.03217051	-0.48207334	-0.76518386	-0.05615315	-0.27886163
4647	46.46000000	-0.90238245	-0.12741757	0.19210456	-0.71063354	0.14061077	-0.58438762	-0.71415880	-0.27458627	-0.02483060	-0.66713831	-0.43608992	0.06992725	-0.53614582	0.56936737	0.20800499	-0.63045944	0.46592170	0.28017990	-0.64044033	0.02664332	-0.47871828	-0.77237455	-0.05077673	-0.27045174
4648	46.47000000	-0.90149453	-0.12640335	0.19416824	-0.71102404	0.14352300	-0.57900023	-0.72130319	-0.27114334	-0.03013544	-0.66350978	-0.44115733	0.06941584	-0.53309527	0.58013318	0.20656192	-0.63104014	0.46714102	0.28080569	-0.64200374	0.02098524	-0.47995841	-0.77495212	-0.04870400	-0.25737929
4649	46.48000000	-0.89691862	-0.12727575	0.18758145	-0.71051623	0.14310882	-0.58492890	-0.72346759	-0.27996184	-0.02990434	-0.66500702	-0.43900007	0.07961823	-0.52749174	0.58805666	0.19702838	-0.63312544	0.46496322	0.28276446	-0.65032499	0.01297009	-0.47607700	-0.77895130	-0.04362466	-0.24334603
4650	46.49000000	-0.89805523	-0.12888021	0.18532305	-0.71471705	0.13698454	-0.57815746	-0.71899802	-0.27926691	-0.02472427	-0.65905378	-0.43459081	0.08277929	-0.51819061	0.59926598	0.19549520	-0.63164662	0.46899365	0.27557766	-0.65570178	-0.00360979	-0.46263587	-0.78297640	-0.04150865	-0.22125682
4651	46.50000000	-0.89924473	-0.12850552	0.18172054	-0.71664534	0.13558306	-0.57419238	-0.71499680	-0.28430319	-0.02096221	-0.65495385	-0.43827342	0.09072801	-0.50616012	0.61294885	0.18880871	-0.63210239	0.46554539	0.27031935	-0.66603570	-0.02158298	-0.44826837	-0.79159363	-0.04781722	-0.20755244
4652	46.51000000	-0.90400114	-0.12912901	0.18202321	-0.72237018	0.13746520	-0.57326905	-0.71087173	-0.30051888	-0.01268356	-0.65382713	-0.42937527	0.09448964	-0.49517269	0.61849785	0.18894298	-0.63798177	0.47477544	0.26113361	-0.67448275	-0.03893461	-0.43450137	-0.79431066	-0.04379792	-0.18715564
4653	46.52000000	-0.90019922	-0.13165863	0.17870942	-0.72277620	0.13909084	-0.57134115	-0.70048783	-0.30748214	-0.00160157	-0.64780238	-0.43420888	0.10100294	-0.48627666	0.63052183	0.18501215	-0.63785044	0.46589221	0.25965571	-0.67546323	-0.05585370	-0.42565573	-0.79925406	-0.03132590	-0.15515788
4654	46.53000000	-0.90418729	-0.13328788	0.17556517	-0.71889670	0.13259425	-0.56914716	-0.70423041	-0.31698999	-0.00268112	-0.64593545	-0.43815407	0.10093129	-0.46919438	0.64343270	0.17956424	-0.64336062	0.47010118	0.26041992	-0.68242385	-0.07291951	-0.40601197	-0.80665163	-0.03284405	-0.12989010
4655	46.54000000	-0.89868469	-0.13277793	0.17516405	-0.72549530	0.13222772	-0.57212595	-0.70093066	-0.32641521	0.00148480	-0.64062189	-0.43860037	0.11469623	-0.45428438	0.65151365	0.17449137	-0.64610271	0.46673550	0.25110058	-0.68523917	-0.09231059	-0.39326214	-0.80502511	-0.03077634	-0.10425792
4656	46.55000000	-0.90483645	-0.13399513	0.17381576	-0.72790262	0.13445630	-0.56740643	-0.69606137	-0.33220702	0.00973144	-0.63441464	-0.44680811	0.11913379	-0.43642228	0.66732445	0.16881604	-0.64630635	0.46303150	0.24628180	-0.69178276	-0.10458016	-0.38675191	-0.80736376	-0.02581755	-0.07306382
4657	46.56000000	-0.90770846	-0.13354472	0.17164592	-0.73075976	0.13671278	-0.56369608	-0.69549833	-0.34301277	0.02288658	-0.63157218	-0.43896768	0.12081549	-0.42621300	0.67585981	0.16019673	-0.65330780	0.46216589	0.25019839	-0.69085837	-0.11935209	-0.38076674	-0.80972419	-0.01665747	-0.04082348
4658	46.57000000	-0.90672487	-0.12784307	0.16670550	-0.72921304	0.13798757	-0.55973110	-0.68495524	-0.35247134	0.03860028	-0.62834887	-0.44583471	0.13257005	-0.41171588	0.68478037	0.14776217	-0.65878009	0.45178391	0.24325586	-0.69317382	-0.12554585	-0.37492979	-0.80658290	-0.00561650	-0.00458933
4659	46.58000000	-0.90552956	-0.13411191	0.16947725	-0.73128043	0.13841315	-0.56390714	-0.67692698	-0.35997749	0.05153627	-0.62583680	-0.45086694	0.13298592	-0.39659138	0.70108344	0.13628060	-0.66121376	0.44655065	0.23403205	-0.69520743	-0.14125653	-0.37645895	-0.80505775	0.01272304	0.04554755
4660	46.59000000	-0.90717168	-0.13801955	0.16536513	-0.73613985	0.14494875	-0.55531513	-0.67551269	-0.37476498	0.05788950	-0.62670717	-0.45149503	0.14489455	-0.37651724	0.71625292	0.12138883	-0.67566566	0.43534883	0.22583510	-0.69545334	-0.14012300	-0.37087936	-0.79700571	0.01646207	0.08925160
4661	46.60000000	-0.90766069	-0.13404407	0.15857110	-0.74223801	0.14605694	-0.55204556	-0.66430743	-0.37807638	0.06341234	-0.61815940	-0.45410021	0.15388080	-0.35446021	0.72724079	0.10561597	-0.68293298	0.42632042	0.21967963	-0.69176505	-0.14091373	-0.36866370	-0.79130683	0.03288021	0.13552224
4662	46.61000000	-0.90959608	-0.13969411	0.15636656	-0.73939687	0.13705823	-0.55888353	-0.66083584	-0.38814408	0.07556968	-0.61217245	-0.46544972	0.16029983	-0.33856612	0.73506864	0.10193030	-0.69094132	0.41555843	0.21207119	-0.69209160	-0.15105714	-0.37139353	-0.77372914	0.05249060	0.19085121
4663	46.62000000	-0.90831239	-0.13677761	0.15901866	-0.74281596	0.13682665	-0.55405724	-0.65462166	-0.39748118	0.08111176	-0.61071899	-0.47114942	0.16669414	-0.31971983	0.74849919	0.09165779	-0.70639584	0.40706191	0.19917399	-0.69135317	-0.14741417	-0.37193360	-0.75916874	0.06871859	0.24009988
4664	46.63000000	-0.90821385	-0.13713829	0.15586962	-0.74336925	0.13403080	-0.55785355	-0.65489930	-0.40350943	0.08758352	-0.60106964	-0.47421603	0.16569482	-0.30302867	0.75482366	0.07855565	-0.71240728	0.39349558	0.18334466	-0.68972448	-0.14921955	-0.37093326	-0.74598301	0.08496429	0.27124209
